<svg width="29" height="33" viewBox="0 0 29 33" fill="none" xmlns="http://www.w3.org/2000/svg">
<g clip-path="url(#clip0_1135_3638)">
<path d="M23.3102 4.35645C24.0881 4.35645 24.7188 4.98705 24.7188 5.76495V5.91235C24.7188 6.06794 24.437 6.30133 23.3102 6.30133C22.1834 6.30133 21.9017 6.06794 21.9017 5.91235V5.76495C21.9017 4.98705 22.5323 4.35645 23.3102 4.35645Z" fill="#222222"/>
<path d="M24.8203 23.7277V5.83478C24.8203 5.61995 24.5951 5.4458 24.3173 5.4458H22.3051C22.0273 5.4458 21.8021 5.61995 21.8021 5.83478V23.7277C21.8021 23.9425 22.0273 24.1167 22.3051 24.1167H24.3173C24.5951 24.1167 24.8203 23.9425 24.8203 23.7277Z" fill="#E5E5E5" stroke="#D0D0D0" stroke-width="0.5"/>
<path d="M24.8203 23.4165V26.5283C24.8203 27.3063 24.3173 27.6952 23.3112 27.6952C22.3051 27.6952 21.8021 27.3063 21.8021 26.5283V23.4165H24.8203Z" fill="#222222"/>
<path d="M24.8203 6.69059V6.61279H21.8021V6.69059H24.8203Z" fill="#D0D0D0"/>
<path d="M24.8203 7.07926V7.00146H21.8021V7.07926H24.8203Z" fill="#D0D0D0"/>
<rect x="23.8125" y="3.50098" width="1.86709" height="0.905468" rx="0.452734" transform="rotate(90 23.8125 3.50098)" fill="#222222"/>
</g>
<g clip-path="url(#clip1_1135_3638)">
<rect x="19.0977" y="6.50049" width="1.86709" height="0.905468" rx="0.452734" transform="rotate(120 19.0977 6.50049)" fill="#FF0D0D"/>
<path d="M18.2333 6.99008C18.907 7.37903 19.1378 8.24046 18.7489 8.91414L18.6752 9.04179C18.5974 9.17654 18.2367 9.2378 17.2609 8.6744C16.285 8.111 16.1578 7.76803 16.2356 7.63329L16.3093 7.50563C16.6982 6.83195 17.5596 6.60114 18.2333 6.99008Z" fill="#FF0D0D"/>
<path d="M9.85514 24.5206L18.8016 9.02485C18.909 8.83881 18.801 8.57538 18.5605 8.43647L16.8179 7.43039C16.5773 7.29148 16.2952 7.32969 16.1877 7.51574L7.24128 23.0115C7.13387 23.1975 7.24184 23.4609 7.48244 23.5998L9.22501 24.6059C9.46561 24.7448 9.74773 24.7066 9.85514 24.5206Z" fill="#E5E5E5" stroke="#D0D0D0" stroke-width="0.5"/>
<path d="M10.0117 24.251L8.45581 26.9459C8.06684 27.6196 7.4367 27.705 6.56542 27.2019C5.69413 26.6989 5.45298 26.1105 5.84195 25.4368L7.39786 22.7419L10.0117 24.251Z" fill="#FF0D0D"/>
<path d="M18.3752 9.76561L18.4141 9.69824L15.8002 8.18913L15.7613 8.2565L18.3752 9.76561Z" fill="#D0D0D0"/>
<path d="M18.1799 10.1025L18.2188 10.0352L15.6049 8.52604L15.566 8.59342L18.1799 10.1025Z" fill="#D0D0D0"/>
</g>
<defs>
<clipPath id="clip0_1135_3638">
<rect width="31.1181" height="10.0608" fill="white" transform="matrix(0 1 -1 0 28.3398 0)"/>
</clipPath>
<clipPath id="clip1_1135_3638">
<rect width="31.1181" height="10.0608" fill="white" transform="translate(24.7695 5.73242) rotate(120)"/>
</clipPath>
</defs>
</svg>
