<svg width="24" height="24" viewBox="0 0 24 24" fill="none" xmlns="http://www.w3.org/2000/svg">
<path d="M13.564 18.19L12.274 19.48C11.9483 19.8067 11.5606 20.0652 11.1338 20.2404C10.7069 20.4155 10.2494 20.5038 9.78804 20.5C8.87264 20.4949 7.99635 20.1282 7.35004 19.48L4.02004 16.15C3.69666 15.8268 3.44013 15.4431 3.26511 15.0207C3.09008 14.5984 3 14.1457 3 13.6885C3 13.2313 3.09008 12.7786 3.26511 12.3562C3.44013 11.9339 3.69666 11.5502 4.02004 11.227L5.31004 9.93698L10.727 4.51998C11.0502 4.1966 11.4339 3.94007 11.8563 3.76505C12.2787 3.59002 12.7314 3.49994 13.1885 3.49994C13.6457 3.49994 14.0984 3.59002 14.5208 3.76505C14.9431 3.94007 15.3269 4.1966 15.65 4.51998L18.98 7.84998C19.3036 8.17317 19.5602 8.55696 19.7353 8.97941C19.9104 9.40186 20.0006 9.85467 20.0006 10.312C20.0006 10.7693 19.9104 11.2221 19.7353 11.6445C19.5602 12.067 19.3036 12.4508 18.98 12.774L13.563 18.19L13.262 17.889L5.67704 10.304L5.31004 9.93598" stroke="#1B1D1B" stroke-linecap="round" stroke-linejoin="round"/>
</svg>
