<svg width="27" height="24" viewBox="0 0 27 24" fill="none" xmlns="http://www.w3.org/2000/svg">
<path d="M5.01172 6.89951C5.01172 6.05943 5.01172 5.63939 5.17521 5.31853C5.31902 5.03628 5.54849 4.80681 5.83073 4.663C6.1516 4.49951 6.57164 4.49951 7.41172 4.49951H10.7306C11.0846 4.49951 11.2616 4.49951 11.4239 4.54612C11.5677 4.58739 11.7024 4.65517 11.8213 4.74597C11.9555 4.84849 12.061 4.99059 12.2721 5.27479L13.3487 6.72463C13.5598 7.00883 13.6653 7.15093 13.7995 7.25345C13.9184 7.34425 14.0531 7.41203 14.1969 7.45331C14.3592 7.49991 14.5362 7.49991 14.8902 7.49991H19.3232C20.1633 7.49991 20.5833 7.49991 20.9042 7.6634C21.1864 7.80721 21.4159 8.03668 21.5597 8.31893C21.7232 8.63979 21.7232 9.05983 21.7232 9.89991V16.0999C21.7232 16.94 21.7232 17.36 21.5597 17.6809C21.4159 17.9631 21.1864 18.1926 20.9042 18.3364C20.5833 18.4999 20.1633 18.4999 19.3232 18.4999H7.41172C6.57164 18.4999 6.1516 18.4999 5.83073 18.3364C5.54849 18.1926 5.31902 17.9631 5.17521 17.6809C5.01172 17.36 5.01172 16.94 5.01172 16.0999V6.89951Z" stroke="#222222"/>
</svg>
