<svg width="25" height="24" viewBox="0 0 25 24" fill="none" xmlns="http://www.w3.org/2000/svg">
<rect x="0.5" width="24" height="24" rx="12" fill="#EFF1EF"/>
<path d="M18.3408 18.4692C20.3627 16.5821 21.2613 13.4371 20.7221 10.4268H12.6797V13.7516H17.2625C17.0828 14.8299 16.4538 15.7284 15.5552 16.3126L18.3408 18.4692Z" fill="#4285F4"/>
<path d="M5.04297 15.8188C5.11659 15.9637 5.19422 16.1064 5.27584 16.247C5.35753 16.3876 5.44309 16.5258 5.53253 16.6615C5.62203 16.7972 5.71522 16.9303 5.81222 17.0608C5.90922 17.1913 6.00978 17.3188 6.11403 17.4436C6.21822 17.5684 6.32584 17.6901 6.43697 17.8088C6.54803 17.9275 6.66241 18.0429 6.78003 18.1552C6.89766 18.2674 7.01834 18.3762 7.14209 18.4816C7.26584 18.587 7.39247 18.6888 7.52203 18.7871C7.65153 18.8853 7.78372 18.9798 7.91859 19.0706C8.05347 19.1613 8.19078 19.2482 8.33059 19.3312C8.47034 19.4142 8.61234 19.4932 8.75659 19.5682C8.90084 19.6431 9.04709 19.714 9.19534 19.7807C9.34359 19.8474 9.49359 19.9099 9.64541 19.9681C9.79716 20.0263 9.95047 20.0802 10.1053 20.1298C10.2601 20.1793 10.4162 20.2245 10.5736 20.2652C10.731 20.3059 10.8893 20.3422 11.0488 20.374C11.2082 20.4058 11.3684 20.433 11.5294 20.4558C11.6903 20.4784 11.8518 20.4966 12.0138 20.5102C12.1758 20.5238 12.3381 20.5328 12.5006 20.5372C12.6631 20.5416 12.8256 20.5414 12.9881 20.5367C13.1506 20.5319 13.3128 20.5226 13.4748 20.5086C13.6367 20.4947 13.7982 20.4762 13.9591 20.4531C14.12 20.4301 14.2802 20.4024 14.4395 20.3703C14.5989 20.3382 14.7572 20.3016 14.9145 20.2606C15.0718 20.2195 15.2278 20.174 15.3825 20.1241C15.5372 20.0743 15.6904 20.02 15.8421 19.9614C15.9937 19.9029 16.1436 19.8401 16.2917 19.7731C16.4398 19.7061 16.5859 19.6349 16.73 19.5596C16.8741 19.4844 17.0159 19.4051 17.1555 19.3218C17.2951 19.2384 17.4322 19.1513 17.5669 19.0603C17.7016 18.9692 17.8336 18.8744 17.9629 18.7759C18.0922 18.6774 18.2187 18.5753 18.3422 18.4696L15.5565 16.313C13.1753 17.8855 9.22147 17.3014 7.87353 13.6172L5.04297 15.8188Z" fill="#34A853"/>
<path d="M7.87192 13.6172C7.51249 12.4939 7.51249 11.4606 7.87192 10.3373L5.04136 8.13574C4.00799 10.2026 3.69349 13.1229 5.04136 15.8187L7.87192 13.6172Z" fill="#FBBC02"/>
<path d="M7.87353 10.3372C8.86203 7.23712 13.0854 5.43993 15.916 8.09074L18.3871 5.66455C14.8826 2.29487 8.05328 2.42962 5.04297 8.13568L7.87353 10.3372Z" fill="#EA4335"/>
</svg>
