<svg width="24" height="24" viewBox="0 0 24 24" fill="none" xmlns="http://www.w3.org/2000/svg">
<path d="M8.8 20.199C8.54654 20.4528 8.24554 20.6542 7.91421 20.7917C7.58288 20.9291 7.22771 20.9999 6.869 21H3V17.156C3 16.432 3.288 15.737 3.8 15.225M8.8 20.199L3.8 15.225M8.8 20.199L18.774 10.221M3.8 15.225L13.784 5.23002L15.21 3.80202C15.4638 3.54788 15.7651 3.34624 16.0968 3.20863C16.4286 3.07103 16.7842 3.00015 17.1433 3.00006C17.5024 2.99997 17.8581 3.07066 18.1899 3.20809C18.5217 3.34553 18.8231 3.54701 19.077 3.80102L20.203 4.92802C20.7155 5.44055 21.0035 6.13569 21.0035 6.86052C21.0035 7.58534 20.7155 8.28048 20.203 8.79302L18.774 10.221M18.774 10.221L13.783 5.23002" stroke="#1B1D1B" stroke-linecap="round" stroke-linejoin="round"/>
</svg>
