<svg width="49" height="579" viewBox="0 0 49 579" fill="none" xmlns="http://www.w3.org/2000/svg">
<circle cx="6" cy="73.3472" r="6" fill="#C6CDC6"/>
<circle cx="43" cy="73.3472" r="6" fill="#C6CDC6"/>
<path d="M6.06439 71.7762C6.06439 71.7762 24.499 58.8472 42.5807 71.7207" stroke="#C6CDC6"/>
<path d="M6.04096 75.2372C6.04096 75.2372 24.4756 62.3081 42.5573 75.1816" stroke="#C6CDC6"/>
<circle cx="6" cy="146.809" r="6" fill="#C6CDC6"/>
<circle cx="43" cy="146.809" r="6" fill="#C6CDC6"/>
<path d="M6.06439 145.238C6.06439 145.238 24.499 132.309 42.5807 145.182" stroke="#C6CDC6"/>
<path d="M6.04096 148.699C6.04096 148.699 24.4756 135.77 42.5573 148.643" stroke="#C6CDC6"/>
<circle cx="6" cy="220.27" r="6" fill="#C6CDC6"/>
<circle cx="43" cy="220.27" r="6" fill="#C6CDC6"/>
<path d="M6.06439 218.699C6.06439 218.699 24.499 205.77 42.5807 218.643" stroke="#C6CDC6"/>
<path d="M6.04096 222.16C6.04096 222.16 24.4756 209.23 42.5573 222.104" stroke="#C6CDC6"/>
<circle cx="6" cy="293.731" r="6" fill="#C6CDC6"/>
<circle cx="43" cy="293.731" r="6" fill="#C6CDC6"/>
<path d="M6.06439 292.16C6.06439 292.16 24.499 279.231 42.5807 292.104" stroke="#C6CDC6"/>
<path d="M6.04096 295.621C6.04096 295.621 24.4756 282.692 42.5573 295.565" stroke="#C6CDC6"/>
<circle cx="6" cy="367.192" r="6" fill="#C6CDC6"/>
<circle cx="43" cy="367.192" r="6" fill="#C6CDC6"/>
<path d="M6.06439 365.621C6.06439 365.621 24.499 352.692 42.5807 365.565" stroke="#C6CDC6"/>
<path d="M6.04096 369.082C6.04096 369.082 24.4756 356.153 42.5573 369.026" stroke="#C6CDC6"/>
<circle cx="6" cy="440.653" r="6" fill="#C6CDC6"/>
<circle cx="43" cy="440.653" r="6" fill="#C6CDC6"/>
<path d="M6.06439 439.082C6.06439 439.082 24.499 426.153 42.5807 439.027" stroke="#C6CDC6"/>
<path d="M6.04096 442.543C6.04096 442.543 24.4756 429.614 42.5573 442.488" stroke="#C6CDC6"/>
<circle cx="6" cy="514.114" r="6" fill="#C6CDC6"/>
<circle cx="43" cy="514.114" r="6" fill="#C6CDC6"/>
<path d="M6.06439 512.543C6.06439 512.543 24.499 499.614 42.5807 512.488" stroke="#C6CDC6"/>
<path d="M6.04096 516.004C6.04096 516.004 24.4756 503.075 42.5573 515.949" stroke="#C6CDC6"/>
<line x1="25" y1="-0.000121833" x2="25.0705" y2="578.999" stroke="#A0A6A0" stroke-width="2"/>
</svg>
