<svg width="16" height="17" viewBox="0 0 16 17" fill="none" xmlns="http://www.w3.org/2000/svg">
<path d="M8.11035 1.01172C8.1447 1.01937 8.27388 1.07305 8.50586 1.51465C8.61569 1.72379 8.73021 1.9834 8.86035 2.30078L9.30664 3.43457C9.4949 3.92163 9.64642 4.31562 9.79785 4.62793C9.91399 4.86742 10.0386 5.07686 10.1943 5.26172L10.3623 5.43945C10.4242 5.4976 10.4886 5.55277 10.5557 5.60449L10.7646 5.75C11.0443 5.92487 11.3443 6.01733 11.6895 6.08008C11.8575 6.11062 12.0445 6.13521 12.2529 6.1582L12.9463 6.22656C13.8346 6.30912 14.4514 6.36732 14.8828 6.46387C15.2165 6.53856 15.3474 6.61774 15.4023 6.67285L15.4365 6.71875C15.4517 6.74809 15.4643 6.77881 15.4746 6.81055L15.498 6.9082C15.5078 6.97336 15.4946 7.12124 15.2021 7.47559C15.0594 7.64851 14.8743 7.84262 14.6436 8.07031L13.8096 8.86816L13.4531 9.20508C12.9515 9.67865 12.594 10.0074 12.3633 10.3867L12.2725 10.5527C12.1766 10.7481 12.1045 10.9544 12.0576 11.167L12.0195 11.3809C11.9673 11.7567 12.0195 12.14 12.1201 12.6396L12.2344 13.1816L12.2979 13.4756C12.4575 14.2223 12.5701 14.7522 12.6211 15.1416C12.662 15.4537 12.6508 15.6024 12.6367 15.668L12.624 15.709C12.5275 15.8867 12.3553 15.9911 12.1758 16L12.1553 15.9961C12.1381 15.9921 12.1095 15.9837 12.0674 15.9648C11.9832 15.9271 11.8697 15.8604 11.7158 15.751C11.5604 15.6405 11.3812 15.5005 11.1699 15.3271L10.4287 14.7051C10.0626 14.3955 9.76753 14.1459 9.51172 13.96C9.31602 13.8178 9.12713 13.7003 8.92578 13.6152L8.71973 13.541C8.30839 13.4187 7.87486 13.4034 7.45801 13.4951L7.28027 13.541C6.99796 13.625 6.74904 13.7705 6.48828 13.96C6.3604 14.0529 6.22273 14.1618 6.07129 14.2861L5.57129 14.7051C4.99957 15.1885 4.59514 15.5299 4.28418 15.751C4.13027 15.8604 4.01683 15.9271 3.93262 15.9648C3.84951 16.0021 3.81981 15.9998 3.82422 16L3.75781 15.9922C3.62515 15.9679 3.5018 15.8911 3.41602 15.7715L3.37598 15.709C3.36211 15.6834 3.32445 15.5574 3.37891 15.1416C3.40442 14.9468 3.44543 14.7169 3.5 14.4424L3.70215 13.4756L3.76562 13.1816C3.91263 12.4941 4.01989 12.0149 3.99805 11.5703L3.98047 11.3809C3.95048 11.165 3.89513 10.9538 3.81543 10.752L3.72754 10.5527C3.56037 10.2122 3.30254 9.92867 2.94238 9.58008L2.54688 9.20508L2.19043 8.86816C1.53761 8.2518 1.0834 7.82148 0.797852 7.47559C0.577697 7.20885 0.515826 7.05916 0.50293 6.97363L0.501953 6.9082C0.507027 6.87498 0.5152 6.84207 0.525391 6.81055L0.563477 6.71875C0.588228 6.67079 0.673281 6.56323 1.11719 6.46387C1.33286 6.4156 1.59502 6.37681 1.91406 6.33984L3.05371 6.22656C3.56138 6.17938 3.97432 6.1412 4.31055 6.08008C4.56948 6.033 4.80296 5.96903 5.02148 5.86621L5.23535 5.75C5.3073 5.705 5.37713 5.65634 5.44434 5.60449L5.6377 5.43945C5.87723 5.21419 6.04718 4.94749 6.20215 4.62793C6.27784 4.47182 6.35323 4.29493 6.43359 4.09668L6.69336 3.43457C7.03432 2.55246 7.27447 1.93293 7.49414 1.51465C7.66868 1.18239 7.78523 1.06972 7.84668 1.03125L7.88965 1.01172C7.92598 1.0037 7.9631 1 8 1L8.11035 1.01172Z" fill="none" stroke="currentColor"/>
</svg>
