<svg width="25" height="24" viewBox="0 0 25 24" fill="none" xmlns="http://www.w3.org/2000/svg">
<path d="M12.9062 2.5C15.1431 2.5 17.0674 3.83518 17.9268 5.75C18.0093 5.93383 18.0672 6.06433 18.1123 6.15918C18.1346 6.20616 18.1522 6.2398 18.165 6.26367C18.1783 6.28837 18.1824 6.29479 18.1797 6.29102L18.2617 6.39258C18.2822 6.41375 18.297 6.42475 18.3076 6.43164C18.3291 6.44547 18.3716 6.46675 18.4883 6.49023L18.5947 6.49805C18.6562 6.49961 18.7519 6.5 18.9062 6.5C20.8392 6.5 22.4062 8.067 22.4062 10C22.4062 11.933 20.8392 13.5 18.9062 13.5H18.2344L17.2344 12.5H18.9062C20.287 12.5 21.4062 11.3807 21.4062 10C21.4062 8.61929 20.287 7.5 18.9062 7.5C18.7186 7.5 18.556 7.50111 18.4189 7.48828L18.291 7.4707C18.1102 7.43432 17.9318 7.37931 17.7637 7.27051C17.6378 7.18898 17.5376 7.09001 17.4502 6.98242L17.3662 6.87207C17.3084 6.79111 17.257 6.6878 17.21 6.58887C17.159 6.48164 17.0943 6.3388 17.0137 6.15918C16.3096 4.59077 14.7348 3.5 12.9062 3.5C11.0777 3.5 9.50295 4.59077 8.79883 6.15918C8.71821 6.3388 8.65352 6.48164 8.60254 6.58887C8.579 6.63838 8.55437 6.68898 8.52832 6.7373L8.44629 6.87207C8.33916 7.02198 8.21673 7.16174 8.04883 7.27051C7.92287 7.35204 7.79125 7.4037 7.65723 7.43945L7.52148 7.4707C7.36172 7.50278 7.15607 7.5 6.90625 7.5C5.52554 7.5 4.40625 8.61929 4.40625 10C4.40625 11.3807 5.52554 12.5 6.90625 12.5H8.57812L7.57812 13.5H6.90625C4.97325 13.5 3.40625 11.933 3.40625 10C3.40625 8.067 4.97325 6.5 6.90625 6.5C7.21424 6.5 7.28855 6.49733 7.32422 6.49023L7.45117 6.45703C7.47852 6.44716 7.49425 6.43849 7.50488 6.43164C7.52623 6.41783 7.56334 6.3882 7.63281 6.29102L7.64746 6.26367C7.6603 6.2398 7.67786 6.20616 7.7002 6.15918C7.74529 6.06433 7.80324 5.93383 7.88574 5.75C8.74513 3.83518 10.6694 2.5 12.9062 2.5Z" fill="#222222"/>
<path d="M12.9062 12L12.5527 11.6464L12.9062 11.2929L13.2598 11.6464L12.9062 12ZM13.4063 21C13.4063 21.2761 13.1824 21.5 12.9063 21.5C12.6301 21.5 12.4063 21.2761 12.4063 21L13.4063 21ZM8.90625 16L8.5527 15.6464L12.5527 11.6464L12.9062 12L13.2598 12.3536L9.2598 16.3536L8.90625 16ZM12.9062 12L13.2598 11.6464L17.2598 15.6464L16.9063 16L16.5527 16.3536L12.5527 12.3536L12.9062 12ZM12.9062 12L13.4062 12L13.4063 21L12.9063 21L12.4063 21L12.4062 12L12.9062 12Z" fill="#222222"/>
</svg>
